<?xml version='1.0' encoding='utf-8'?>
<!-- Generator: imaengine 6.0   -->
<svg xmlns:xlink="http://www.w3.org/1999/xlink" xmlns="http://www.w3.org/2000/svg" viewBox="0,0,2500,2500" style="enable-background:new 0 0 2500 2500;" version="1.1">
<defs/>
<g id="layer0">
<path d="M2500,1250C2500,1940.36 1940.36,2500 1250,2500C559.644,2500 0,1940.36 0,1250C0,559.644 559.644,0 1250,0C1940.36,0 2500,559.644 2500,1250Z" fill="#000000"/>
<path d="M1922,1250C1922,1621.14 1621.14,1922 1250,1922C878.865,1922 578,1621.14 578,1250C578,878.865 878.865,578 1250,578C1621.14,578 1922,878.865 1922,1250Z" fill="#B3B3B3"/>
<path d="M1096,2382.3C584.2,2313.2 179.9,1905.4 116.2,1392L1096,2382.3ZM2383.9,1391.9C2319.1,1914.5 1901.6,2327.7 1377.2,2385.4L2383.9,1391.9ZM1377.2,114.5C1902.7,172.6 2320.7,587.1 2384.2,1110.7L1377.2,114.5Z" stroke="#000000" stroke-width="1" fill="none"/>
<path d="M1377.2,1991.9L1377.2,2385.4C1901.7,2327.3 2319.1,1914.2 2383.9,1391.9L1989.3,1391.9C1930.6,1698.7 1686,1939.5 1377.2,1991.9L1377.2,1991.9Z" fill="#00FF55"/>
<path d="M1377.2,114.5L1377.2,508C1687.1,560.7 1932.3,802.6 1990.1,1111L2384.5,1111C2320.4,587.1 1902.4,172.6 1377.2,114.5L1377.2,114.5Z" fill="#EDED00"/>
<path d="M510.8,1391.9L116.1,1391.9C179.8,1905.3 584.1,2313.4 1095.9,2382.2L1095.9,1987C800,1925.3 567.5,1689.8 510.8,1391.9L510.8,1391.9Z" fill="#FF002B"/>
<path d="M1096,513.2L1096,118C583.4,186.8 178.5,596 115.9,1110.7L510.3,1110.7C566.1,811.6 798.9,574.7 1096,513.2L1096,513.2Z" fill="#00E1FF"/>
<path d="M1250,645.2C964,645.2 724.5,843.6 661.6,1110.3L1838.8,1110.3C1775.5,843.5 1536,645.2 1250,645.2L1250,645.2Z" fill="#000000"/>
<path d="M949,1551.1C949,1594.18 914.078,1629.1 871,1629.1C827.922,1629.1 793,1594.18 793,1551.1C793,1508.02 827.922,1473.1 871,1473.1C914.078,1473.1 949,1508.02 949,1551.1Z" fill="#000000"/>
<path d="M931.5,1551.1C931.5,1584.51 904.413,1611.6 871,1611.6C837.587,1611.6 810.5,1584.51 810.5,1551.1C810.5,1517.69 837.587,1490.6 871,1490.6C904.413,1490.6 931.5,1517.69 931.5,1551.1Z" fill="#EDED00"/>
<path d="M1328,1551.1C1328,1594.18 1293.08,1629.1 1250,1629.1C1206.92,1629.1 1172,1594.18 1172,1551.1C1172,1508.02 1206.92,1473.1 1250,1473.1C1293.08,1473.1 1328,1508.02 1328,1551.1Z" fill="#000000"/>
<path d="M1310.5,1551.1C1310.5,1584.51 1283.41,1611.6 1250,1611.6C1216.59,1611.6 1189.5,1584.51 1189.5,1551.1C1189.5,1517.69 1216.59,1490.6 1250,1490.6C1283.41,1490.6 1310.5,1517.69 1310.5,1551.1Z" fill="#FF002B"/>
<path d="M1709.7,1551.1C1709.7,1594.18 1674.78,1629.1 1631.7,1629.1C1588.62,1629.1 1553.7,1594.18 1553.7,1551.1C1553.7,1508.02 1588.62,1473.1 1631.7,1473.1C1674.78,1473.1 1709.7,1508.02 1709.7,1551.1Z" fill="#000000"/>
<path d="M1692.2,1551.1C1692.2,1584.51 1665.11,1611.6 1631.7,1611.6C1598.29,1611.6 1571.2,1584.51 1571.2,1551.1C1571.2,1517.69 1598.29,1490.6 1631.7,1490.6C1665.11,1490.6 1692.2,1517.69 1692.2,1551.1Z" fill="#00FF55"/>
<path d="M1129.8,1714.2L1204.3,1714.2L1204.3,1783.6L1129.8,1783.6L1129.8,1714.2Z" fill="#35CBFF"/>
<path d="M1204.3,1714.2L1278.8,1714.2L1278.8,1783.6L1204.3,1783.6L1204.3,1714.2Z" fill="#3CACDD"/>
<path d="M1278.5,1714.2L1353,1714.2L1353,1783.6L1278.5,1783.6L1278.5,1714.2ZM1285.8,1293L1427.2,1293L1427.2,1391.7L1285.8,1391.7L1285.8,1293Z" fill="#35CBFF"/>
<path d="M1427.2,1293L1568.6,1293L1568.6,1391.7L1427.2,1391.7L1427.2,1293Z" fill="#3CACDD"/>
<path d="M1568.3,1293L1709.7,1293L1709.7,1391.7L1568.3,1391.7L1568.3,1293Z" fill="#35CBFF"/>
<path d="M780.4,1306.2L878,1306.2L878,1373.4L780.4,1373.4L780.4,1306.2Z" fill="#4D4D4D"/>
<path d="M878,1306.2L975.6,1306.2L975.6,1373.4L878,1373.4L878,1306.2Z" fill="#000000"/>
<path d="M975.3,1306.2L1072.9,1306.2L1072.9,1373.4L975.3,1373.4L975.3,1306.2Z" fill="#4D4D4D"/>
</g>
</svg>
